<svg width="256px" height="256px" viewBox="-6.72 -6.72 61.44 61.44" id="b" xmlns="http://www.w3.org/2000/svg" fill="#ffffff" stroke="#ffffff" stroke-width="2.88" transform="matrix(1, 0, 0, 1, 0, 0)"><g id="SVGRepo_bgCarrier" stroke-width="0" transform="translate(4.080000000000002,4.080000000000002), scale(0.83)"><rect x="-6.72" y="-6.72" width="61.44" height="61.44" rx="30.72" fill="#f0eff5" strokewidth="0"></rect></g><g id="SVGRepo_tracerCarrier" stroke-linecap="round" stroke-linejoin="round" stroke="#a07979" stroke-width="0.288"></g><g id="SVGRepo_iconCarrier"> <defs> <style>.c{fill:none;stroke:#0055a1;stroke-linecap:round;stroke-linejoin:round;}</style> </defs> <path class="c" d="m24,43.5c9.0432-3.1174,15.4885-10.3631,16.5-19.5889.2804-4.0049.2566-8.0254-.0714-12.0267-.0898-1.3069-1.1582-2.3314-2.4677-2.3663-4.0911-.126-8.8455-.8077-12.52-4.4273-.7988-.7877-2.0822-.7877-2.881,0-3.6749,3.6192-8.4293,4.3013-12.5199,4.4273-1.3095.0349-2.3779,1.0594-2.4677,2.3663-.3283,4.0013-.3524,8.0217-.0723,12.0267,1.0115,9.2258,7.4568,16.4715,16.5,19.5889Z"></path> <g> <circle class="c" cx="24.0002" cy="21.1962" r="3.4577"></circle> <line class="c" x1="24.0002" y1="28.2616" x2="24.0002" y2="24.6539"></line> </g> </g></svg>