<?xml version="1.0" standalone="no"?>
<!DOCTYPE svg PUBLIC "-//W3C//DTD SVG 20010904//EN"
 "http://www.w3.org/TR/2001/REC-SVG-20010904/DTD/svg10.dtd">
<svg version="1.0" xmlns="http://www.w3.org/2000/svg"
 viewBox="0 0 1090 656"
 preserveAspectRatio="xMidYMid meet">

<g transform="translate(0.000000,656.000000) scale(0.100000,-0.100000)"
fill="#0053a1" stroke="none">
<path d="M5530 4894 c-107 -63 -369 -189 -535 -257 -150 -61 -308 -111 -500
-157 -183 -44 -228 -62 -244 -98 -7 -14 -15 -76 -18 -138 l-6 -114 1416 0
1417 0 0 129 c0 98 -3 133 -14 144 -13 12 -120 41 -421 112 -218 52 -513 181
-811 355 -77 45 -148 80 -163 80 -14 0 -69 -25 -121 -56z"/>
<path d="M8147 4210 c-16 -5 -44 -20 -63 -35 -95 -72 -84 -202 21 -262 113
-64 235 9 235 142 0 64 -33 115 -93 144 -47 23 -57 24 -100 11z m119 -65 c50
-53 56 -122 16 -167 -22 -25 -32 -22 -32 10 0 15 -4 34 -10 42 -5 9 -5 19 2
27 5 7 7 24 4 37 -7 30 -61 45 -95 26 -20 -10 -22 -18 -19 -78 2 -52 6 -67 18
-67 10 0 16 12 18 33 2 17 9 32 16 32 16 0 36 -21 36 -39 0 -8 7 -23 16 -33
44 -47 -56 -67 -116 -23 -45 33 -59 60 -60 113 0 36 6 48 40 82 35 35 46 40
86 40 40 0 51 -5 80 -35z m-58 -47 c20 -20 14 -38 -13 -38 -18 0 -25 5 -25 18
0 32 17 41 38 20z"/>
<path d="M6156 3858 c-9 -12 -16 -32 -16 -44 0 -12 -27 -147 -60 -301 -33
-153 -60 -286 -60 -295 0 -16 12 -18 113 -18 l114 0 12 58 c6 31 27 129 46
217 73 342 83 390 78 398 -2 4 -51 7 -108 7 -96 0 -105 -2 -119 -22z m95 -204
c18 -17 16 -34 -15 -106 -9 -21 -16 -51 -16 -68 0 -44 -17 -70 -45 -70 -35 0
-38 13 -15 69 11 28 19 68 18 89 -1 37 15 80 36 94 15 11 17 10 37 -8z"/>
<path d="M3490 3852 c-14 -5 -25 -47 -75 -290 -39 -188 -45 -228 -35 -256 14
-45 47 -73 95 -84 31 -7 424 -10 471 -3 10 1 34 85 34 122 0 18 -9 19 -179 19
-150 0 -181 3 -192 16 -10 13 -7 42 20 172 18 86 39 182 47 213 24 98 28 94
-81 94 -52 0 -99 -1 -105 -3z"/>
<path d="M4628 3846 c-103 -37 -129 -78 -173 -277 -38 -170 -44 -262 -19 -297
34 -49 53 -52 352 -52 l280 0 16 65 c9 35 16 67 16 70 0 3 -94 5 -210 5 -197
0 -211 1 -230 20 -25 25 -25 19 9 170 22 94 34 129 51 142 20 16 46 18 229 18
113 0 211 4 218 8 13 8 36 120 27 133 -9 15 -523 10 -566 -5z"/>
<path d="M5323 3852 c-7 -4 -24 -57 -37 -117 -32 -143 -106 -495 -106 -507 0
-5 48 -7 108 -6 l107 3 25 115 26 115 142 3 c165 3 156 12 122 -118 -33 -127
-38 -121 87 -118 123 3 106 -15 142 158 12 58 39 186 60 285 28 130 36 182 27
187 -15 10 -178 10 -194 0 -11 -8 -39 -109 -56 -204 l-7 -38 -139 0 c-76 0
-141 4 -144 9 -4 5 5 59 18 119 20 95 22 112 9 116 -22 9 -176 7 -190 -2z"/>
<path d="M6588 3845 c-102 -37 -127 -81 -173 -294 -39 -178 -42 -228 -20 -271
30 -58 46 -61 357 -58 l283 3 11 50 c22 93 40 85 -185 85 -201 0 -243 6 -254
34 -3 8 7 72 22 141 42 185 25 175 287 175 l213 0 16 52 c8 28 15 62 15 75 l0
23 -267 -1 c-198 0 -278 -4 -305 -14z"/>
<path d="M7406 3850 c-75 -23 -137 -95 -156 -184 -66 -301 -71 -337 -45 -385
30 -58 55 -62 368 -59 l284 3 39 26 c60 40 88 102 124 279 41 195 42 241 9
276 -46 51 -68 54 -341 53 -139 0 -266 -5 -282 -9z m411 -159 c10 -16 8 -44
-13 -148 -36 -178 -35 -177 -208 -181 -86 -2 -142 1 -155 8 -27 14 -27 46 4
183 34 158 32 157 214 157 134 0 147 -2 158 -19z"/>
<path d="M2740 3834 c-52 -22 -98 -72 -115 -123 -23 -73 -67 -280 -72 -347 -6
-71 10 -104 61 -132 27 -15 67 -17 291 -18 143 -1 274 1 291 3 28 4 32 10 42
55 23 96 42 88 -212 88 -239 0 -256 3 -256 50 0 44 18 48 232 49 119 1 207 6
214 12 11 9 34 91 34 119 0 6 -86 10 -215 10 l-215 0 0 26 c0 15 12 38 29 55
l29 29 225 0 225 0 12 53 c6 28 13 60 15 70 3 16 -16 17 -288 17 -238 -1 -298
-4 -327 -16z"/>
<path d="M1792 2953 c-6 -10 -33 -129 -61 -264 -28 -135 -56 -261 -61 -280 -6
-19 -10 -44 -10 -56 l0 -23 315 0 c343 0 346 0 408 59 44 40 57 74 94 241 43
191 45 251 12 286 -50 53 -55 54 -383 54 -281 0 -306 -1 -314 -17z m477 -139
c20 -15 22 -22 16 -63 -3 -25 -12 -71 -20 -101 -7 -30 -16 -72 -20 -94 -3 -21
-17 -49 -31 -62 -23 -24 -29 -25 -157 -23 -74 0 -139 4 -146 8 -8 5 -8 16 -1
37 5 16 21 84 35 152 13 67 29 131 35 142 10 18 21 20 138 20 102 0 132 -3
151 -16z"/>
<path d="M2746 2950 c-94 -37 -111 -67 -160 -289 -42 -193 -45 -237 -14 -276
40 -52 63 -55 368 -55 l280 0 9 23 c5 13 12 45 16 70 l7 47 -221 0 c-208 0
-222 1 -241 20 -23 23 -24 33 -10 61 10 18 23 19 219 19 155 0 211 3 219 13 9
11 32 103 32 128 0 6 -78 9 -215 7 -201 -3 -215 -2 -215 15 0 30 27 72 55 85
17 8 95 12 239 12 l214 0 12 53 c6 28 13 60 15 70 3 16 -15 17 -278 17 -253
-1 -287 -3 -331 -20z"/>
<path d="M3481 2956 c-6 -7 -18 -47 -26 -87 -21 -111 -64 -309 -76 -353 -13
-48 -3 -107 22 -135 46 -49 63 -52 316 -49 l238 3 14 63 c12 51 12 65 2 71 -7
5 -76 6 -154 4 -165 -5 -203 0 -212 27 -3 11 14 115 39 233 25 117 46 219 46
225 0 18 -194 16 -209 -2z"/>
<path d="M4543 2946 c-66 -31 -106 -85 -128 -175 -13 -54 -14 -77 -6 -108 20
-74 49 -88 221 -102 191 -16 200 -18 200 -47 0 -41 -27 -46 -246 -43 -126 3
-207 0 -212 -6 -10 -11 -32 -94 -32 -120 0 -14 29 -16 278 -13 l279 3 49 30
c64 40 104 115 111 208 5 55 2 71 -16 101 -28 45 -54 52 -226 66 -77 6 -150
15 -162 20 -29 12 -29 34 -1 54 19 13 59 16 235 16 235 0 214 -6 228 70 4 19
9 43 11 53 5 16 -12 17 -263 17 -262 0 -269 -1 -320 -24z"/>
<path d="M5348 2954 c-52 -16 -97 -55 -121 -106 -18 -38 -87 -348 -87 -391 0
-44 27 -85 70 -107 37 -19 58 -20 324 -20 l285 0 11 58 c6 31 13 63 15 70 3 9
-43 12 -208 13 -117 1 -223 4 -237 8 -21 6 -25 13 -25 46 l0 40 212 3 213 2
14 28 c8 15 17 49 21 76 l8 49 -189 -6 c-204 -6 -244 -3 -244 20 0 21 31 71
49 80 9 4 117 10 240 13 l224 5 13 50 c25 93 50 85 -263 84 -212 0 -289 -4
-325 -15z"/>
<path d="M6178 2956 c-100 -36 -127 -81 -174 -293 -46 -202 -47 -243 -10 -282
16 -16 40 -34 55 -40 17 -8 125 -10 320 -9 l294 3 33 160 c18 88 36 175 40
193 l6 33 -188 -2 c-104 0 -197 -3 -206 -5 -11 -3 -20 -23 -27 -55 -20 -92
-23 -89 79 -89 l90 0 0 -32 c0 -60 -6 -63 -144 -63 -169 0 -166 -2 -137 142
30 147 38 169 68 193 24 19 40 20 258 20 l232 0 12 57 c6 31 11 62 11 70 0 19
-558 18 -612 -1z"/>
<path d="M6922 2946 c-6 -13 -16 -53 -22 -88 -7 -35 -27 -133 -46 -218 -19
-85 -34 -167 -34 -183 0 -44 27 -85 70 -107 36 -18 59 -20 295 -20 284 0 287
1 357 68 25 24 43 53 52 86 20 69 96 438 96 465 0 20 -5 21 -98 21 -117 0
-112 5 -141 -145 -59 -300 -67 -325 -108 -344 -26 -12 -222 -13 -263 -2 -37
10 -36 38 9 249 23 104 41 201 41 215 l0 27 -98 0 c-95 0 -99 -1 -110 -24z"/>
<path d="M7803 2958 c-7 -12 -116 -506 -130 -590 l-6 -38 96 0 c52 0 102 3
111 6 10 4 19 31 27 80 6 41 17 81 24 91 14 19 113 30 140 15 10 -5 39 -49 64
-98 l46 -89 113 -3 c86 -2 112 0 112 10 0 7 -21 51 -46 98 -27 51 -41 86 -34
88 27 9 96 70 114 101 11 19 28 76 38 128 17 87 17 96 1 134 -12 32 -26 46
-57 60 -37 17 -70 19 -323 19 -215 0 -284 -3 -290 -12z m438 -149 c17 -17 20
-28 14 -56 -14 -79 -45 -93 -199 -93 l-99 0 6 49 c3 27 13 65 21 85 l15 36
110 0 c99 0 113 -2 132 -21z"/>
<path d="M8726 2960 c-66 -20 -127 -83 -146 -151 -29 -106 -71 -339 -67 -372
6 -45 29 -73 76 -93 51 -21 537 -20 589 2 46 19 88 58 112 104 18 35 90 355
90 400 0 35 -47 97 -82 109 -37 13 -529 13 -572 1z m410 -151 c15 -15 14 -26
-6 -135 -26 -138 -41 -177 -76 -193 -26 -12 -242 -15 -282 -5 -34 10 -37 45
-12 167 26 127 42 164 73 177 12 5 81 8 154 7 107 -2 135 -5 149 -18z"/>
<path d="M4850 2047 c0 -8 55 -67 123 -133 126 -123 297 -259 448 -357 206
-133 238 -137 373 -45 218 147 399 287 559 432 145 130 231 116 -698 116 -664
0 -805 -2 -805 -13z"/>
</g>
</svg>